<svg version="1" xmlns="http://www.w3.org/2000/svg" width="840" height="840" viewBox="0 0 630.000000 630.000000"><path d="M307 16.1c0 .5.5.7 1 .4.6-.3 1-.8 1-1.1 0-.2-.4-.4-1-.4-.5 0-1 .5-1 1.1zM312.5 16.1c-1.1 1.6-.1 1.9 1.3.3.7-.8.8-1.4.3-1.4s-1.3.5-1.6 1.1zM322.6 15.8c-.3.5.1.9.9.9s1.2-.4.9-.9c-.3-.4-.7-.8-.9-.8-.2 0-.6.4-.9.8zM286.9 17.7c-1.3 1.6-1.2 1.7.4.4.9-.7 1.7-1.5 1.7-1.7 0-.8-.8-.3-2.1 1.3z"/><path d="M315.5 18c.4.6-2.1.9-6.9.7-4.2-.1-7.6 0-7.6.3s-2.1.5-4.7.4c-2.7 0-6 .3-7.5.7-1.6.4-3 .3-3.4-.2-.4-.6-1.1-.6-2 .2-1.1.9-1.4.8-1.4-.2 0-1.1-.2-1.1-.8-.1-.5.6-2.6 1.3-4.8 1.5-2.1.1-4.4.6-5 .9-.6.4-2.3.5-3.7.2-1.6-.2-2.7 0-2.7.7 0 .8-.4.8-1.3 0-1-.8-1.7-.7-2.5.1-.9.9-1.2.9-1.2-.3s-.2-1.2-.9 0c-.9 1.4-1.9 1.8-6.6 2.4-1.2.2-2.7.7-3.4 1.1-1 .7-1.2.3-.7-1.5.6-2.3.6-2.3-.5-.3-1 2.1-5.2 3.7-9.1 3.7-1 0-1.8.3-1.8.8 0 .4-.9.6-2 .4-1.1-.2-2 0-2 .4 0 .5-.9 1.1-2 1.4-1.3.3-1.8.1-1.3-.6.3-.7-.4-.3-1.6.8-1.3 1.1-2.5 1.9-2.7 1.7-.2-.1-1.5 0-2.9.4-1.5.4-3.2.1-4.3-.7-1.5-1.2-1.6-1.2-.5.2 1.5 1.8.8 3-1.3 2.2-.8-.3-1.4 0-1.4.6s-.5 1.1-1.1 1.1c-.5 0-.7-.6-.3-1.2.5-.7-.5-.2-2.1 1-2.2 1.7-3 2-3.7 1-.6-1-.8-.8-.8.4 0 1-.4 1.8-.9 1.8s-1.6.3-2.5.6c-1.1.4-1.4 0-1.1-1.6.2-1.3.1-1.9-.3-1.6-.7.7-.8 1.1-1.1 3.7 0 .6-.8.8-1.7.5-.8-.3-1.3-.2-1 .2.5.8-5.3 3.4-6.4 2.9-.3-.1-1.6.8-2.9 2-1.9 1.8-2.7 2-3.8 1.1-1.1-.9-1.3-.8-1.1.3.2.8-.3 1.3-.9 1.2-.7-.2-1.3.1-1.3.5 0 .5-1.1 1.4-2.5 2-3.3 1.5-5.6 1.6-3.5.1 1.3-.9 1.3-1 0-.6-.8.2-1.5 1-1.5 1.8s-.8 1.3-1.7 1.3c-1-.1-1.7.1-1.6.5.2 1.9-.4 2.4-1.2 1.1-.8-1.3-1-1.2-1 .4 0 1.2-.5 1.6-1.6 1.2-.8-.3-1.3-.2-1 .3 1 1.5-2.5 2.2-4.3.9-.9-.7-1.3-.8-.9-.4.4.5.2 1.6-.5 2.5-1.1 1.4-1 1.4.6.2.9-.7 1.7-.9 1.7-.4s-1.2 1.5-2.6 2.1c-2 1-2.4 1-1.9 0 .4-.7-.1-.4-1 .7-1.2 1.6-1.8 1.7-2.4.7-.7-1.1-.9-1-1.4.3-.5 1.1-.3 1.4.6 1 .6-.4.1.3-1.2 1.4-2.6 2.3-4.6 2.8-3.5.8.5-.8.2-.8-.9.2-2 1.6-2.3 2.5-.4 1.5.6-.4.4.2-.7 1.4-1 1.2-2.2 1.9-2.6 1.7-.4-.3-1.1.2-1.4 1.1-.4.9-.9 1.4-1.2 1.1-.4-.3-1.1-.1-1.8.4-.6.5-2.9 2.5-5.1 4.4-2.2 1.9-4.6 3.3-5.3 3-.7-.3-1.1-.1-.8.4.8 1.2-5.7 6.8-7.3 6.3-.8-.3-1.2-.1-.9.4.3.5-.8 2.1-2.3 3.6-1.6 1.5-2.9 2.5-2.9 2.2 0-.3-.6.1-1.4.8-.8.7-1.2 1.6-1 2 .3.4-.4.5-1.5.3-1.3-.2-1.8.1-1.5.9.6 1.7-4.2 6-5.7 5.1-.8-.5-1-.4-.5.4.9 1.4-6.3 9.3-7.7 8.4-.6-.3-.8-.2-.4.3 1 1.7-2.1 4.7-4 4-1.4-.6-1.6-.5-.5.5 1 1.1.8 1.7-1.1 3.4-1.3 1.1-1.6 1.6-.7 1.1.8-.5.3.2-1.2 1.7-2.9 2.9-4.4 3.5-3.2 1.4.4-.7.3-.9-.2-.4s-.9 1.8-.9 3c0 1.1-.6 2.2-1.4 2.5-.8.3-1.1 0-.7-.7.5-.7.1-.9-.9-.4-.9.3-1.3.9-.8 1.2 1.4 1.1 1.4 3.1-.1 3.1-.8 0-1.8.5-2.2 1.2-.4.7-.3.8.4.4s1.2-.3 1.2.2-.9 1.2-2 1.5c-1.1.3-1.9 1.1-1.8 1.9.2.7-.3 1.2-1 1-.8-.1-1.1.2-.8.7.4.5-.6 2.2-2.1 3.7-1.6 1.4-2.1 2.3-1.3 1.8.8-.4.3.8-1.2 2.8-1.6 2-2.8 4-2.8 4.4 0 .4-.8 1.4-1.8 2.3-1.6 1.4-3.3 4.3-3.6 6.1-.1.3-1.1 1.8-2.2 3.5-1.2 1.6-2.5 4-2.8 5.2-.4 1.3-1.2 2.3-1.7 2.3-.6 0-.8-.4-.5-.8.2-.4.1-1.4-.4-2.2-.6-.9-.8-.2-.6 2 .3 3.4-2.9 11.4-4.2 10.6-.4-.2-.8 1-.8 2.6-.1 1.7-.8 3.5-1.7 4-1 .5-1.4 1.5-1 2.5.4 1.1.3 1.4-.5.9-.7-.4-1-.2-.6.7.3.8-.5 1.9-1.8 2.6-1.3.6-1.5.9-.5.7 2.1-.6 2.2.1.3 1.9-.7.8-1.7 1.1-2.2.7-.5-.4-.2.2.6 1.2 1.4 1.8 1.3 1.9-.5 1.2-1.5-.5-1.7-.4-.9.4 1.3 1.3-.3 7-1.9 7-.4 0-.5.4-.2 1 .3.5.1 1-.5 1s-.9.4-.5.9c.3.5-.6 3.9-1.9 7.4-1.3 3.6-2.1 6.9-1.8 7.3.4.4-.4.4-1.8.1-2.2-.5-2.3-.5-.8.7 2.3 1.7 2.3 2.7.1 1.9-1.6-.6-1.6-.5-.5 1 .8.9 1 2.2.6 2.9-.5.7-1 2.4-1.2 3.8-.2 1.3-.7 3-1.3 3.6-.5.6-.5 1.5-.1 1.9.4.5-.2.5-1.3.2-1.8-.6-1.8-.6-.3.6s1.5 1.4 0 2.5c-.9.7-1.1 1-.5.7.8-.4 1.1-.1.7.9-.3.9-1 1.3-1.5 1-.5-.3-.6.2-.3 1 .3.9 1.1 1.3 1.6 1 .6-.4.5.3-.1 1.5-.7 1.1-1.4 2.1-1.7 2.1-.3 0-.3-.4.1-.9.3-.5.1-1.2-.4-1.5-1.1-.7-.9 1.3.2 3.2.5.7.1 2.6-.7 4.4-1.8 3.6-2.1 5-.5 2.8.8-1.2.9-.9.4 1-1.1 4.6-1.3 5.5-1.4 6.2-.1.4-.9.5-1.8.2-1-.3-.8.1.5.8 1.2.8 2 1.7 1.6 2.1-.4.4-1.3.2-2-.4-.8-.7-1.4-.6-2 .2-.4.7-.3.9.3.6.6-.4 1.7.1 2.4 1 1.2 1.4 1.2 1.6-.1 1.1-1.1-.4-1.6 0-1.6 1.3s.4 1.5 1.2.8c.9-.8 1.1-.5.7 1-.3 1.2-1 1.8-1.7 1.4-.8-.5-.8-.3 0 .8.5.8.9 2.4.8 3.6-.1 1.3-.2 3-.3 3.9 0 .8-.6 1.2-1.2.8-.8-.4-.8-.1-.1 1.2 1.1 2.1 1.1 7.4 0 7.4-.4 0-.4.7-.1 1.7.4 1.1.3 1.4-.6.9-.7-.5-1-.2-.9.5.2.7-.2 1.3-.9 1.4-.6 0-1.5.3-1.9.7-.3.4.3.6 1.4.3 2.3-.4 3.9 1 2.2 2-.5.3-1 1.2-1 1.8 0 .7.4.6 1-.3.7-1.1 1-.6 1 2-.1 3.1-.2 3.3-1.4 1.8-.7-1-1.6-1.5-1.9-1.1-.4.3.1 1.2 1.2 1.9 1.8 1.3 2.8 8 1 6.9-.5-.4-.9-.1-.9.4 0 .6.4 1.1.8 1.1s.8.9.9 2c.1 1.1-.2 1.8-.6 1.6-.4-.3-.8.5-.8 1.7-.2 1.7 0 1.9.7.7.8-1.2 1-1.1 1 .5 0 1.2-.6 2.7-1.2 3.4-1 1.1-1 1.3 0 .7.7-.5 1.2-.1 1.3 1.1 0 1 .2 2.6.4 3.6.2.9-.1 1.5-.6 1.1-.5-.3-.7-.9-.4-1.4.8-1.4-2.4-3.5-3.6-2.3-.8.8-.6 1.1.7 1 1.4-.2 1.9.5 1.8 2.4 0 2 .4 2.5 1.5 2.1.9-.3 1.3-.2.9.3-.4.4-.3 1.4.3 2.1.6.7.6 1.4 0 1.8-.5.3-.7 1.6-.4 2.9.3 1.6.2 1.8-.5.9-.7-1.1-1-1.1-1.5.2-.4.9-.3 1.5.1 1.5 2-.3 2.8.3 2.9 2.3.4 5.8 1.3 12.1 1.7 12.6.3.2 0 1.4-.6 2.5-.8 1.6-.8 1.9.4 1.5 2-.8 1.7 5-.3 6.3-1.1.8-.9.9.7.5 2.2-.7 2.3-.5 2.6 5.7.2 2 .6 3.7 1.1 3.7.4 0 .5.5.2 1-.5.8-1.2.7-2.3-.2-1.5-1.2-1.6-1.1-.3.4.7 1 2.1 1.8 3 1.9 1.1 0 1.2.2.3.6-1 .4-1 1 .3 3 .9 1.4 1.4 2.7 1.1 3-.3.3 0 1.5.6 2.6.8 1.6.8 1.9-.4 1.4-.8-.3-1.5.1-1.5.8 0 .7.7 1.2 1.6 1.1.9-.1 1.5.6 1.5 1.6-.1 1 .2 1.8.6 1.8.4 0 1 .7 1.4 1.5.5 1.3.1 1.3-2.2-.1l-2.7-1.7 2.7 2.5c1.5 1.4 2.5 2.8 2.1 3.2-.3.3-.1.6.7.6 1 0 1 .3 0 1.5-.7.9-1 1.8-.6 2.2.3.3.6.1.6-.6s.5-.9 1.1-.6c.7.5.5 1.4-.5 2.9-1.2 1.9-1.2 2.3-.1 2.3.8 0 1.2-.4.9-.9-.3-.4-.3-.8 0-.8s1 1 1.7 2.1c.9 1.7.8 2.3-.2 3-1.1.7-1 .9.4.9 1 0 1.7.6 1.5 1.2-.1.7.4 2.4 1.1 3.7.7 1.3.8 2.1.2 1.7-.7-.4-.9-.1-.5.8.3.9 1.1 1.4 1.7 1.3.7-.1 1.1.4.9 1.2-.2.8.2 1.7.8 2.1.6.4 1.2 1.3 1.4 2.1.1.8.8 2.4 1.4 3.6.7 1.3 1 2.3.7 2.3-.3 0 .6 1.7 1.9 3.7 1.9 2.8 2.3 4 1.4 5-.9 1.1-.7 1.2.8.6 1.5-.5 1.7-.4.8.8-.8.9-.8 2.1-.3 3.4.9 1.8.9 1.8.5-.3-.4-1.9-.2-2.1 1-1.1 1.3 1 1.2 1.5-.2 3.8-1.7 2.5-1.7 2.6.2.9 1.8-1.6 2-1.5 3.1.8.6 1.3.7 2.2.2 1.8-.5-.3-.6.2-.3 1 .4 1 .1 1.6-.7 1.6-.7 0-.9.3-.6.6.4.4 1.4.1 2.3-.7 1.6-1.3 1.7-1.1 1.2 1.4-.3 1.5-.1 2.7.4 2.7s.6.5.2 1.2c-.4.7-.3.8.4.4.6-.4.9-1.4.6-2.4-.5-1.4-.4-1.4.4-.2.6.8.8 1.8.6 2.2-.3.4 0 .8.7.8s.9.3.6.7c-.4.3.2 1.3 1.4 2.1 1.5 1 1.8 1.7 1 2.5-.6.6-1.1 1.6-1.1 2.2 0 .5.4.3 1-.5.5-.8 1-1.2 1.2-1 .2.3 1.2 1.8 2.4 3.5 1.1 1.6 2.7 4.1 3.4 5.5 1.2 2.2 1.1 2.4-.2 1.3-1.2-1-1.5-1-1.5.2 0 .7.3 1.4.6 1.3 2.6-.2 4.1.9 7.4 5.7 3.4 5 3.6 5.5 2 6.5-1.7 1.1-1.7 1.1-.1.6 3.7-1.1 5.4 1 3.5 4.1-.8 1.3 2.9 3.9 4.9 3.5.6-.1 2 1 2.9 2.5 1 1.6 2.7 3.5 3.7 4.4 2.3 2.1 2.3 3 .1 2.2-1-.3-1.6-.4-1.3-.2 4.1 3.5 5.4 4.3 4.1 2.6-.7-.9-.9-1.7-.3-1.7 1.2 0 2.4 2.8 1.7 4-.3.4.4.6 1.5.3 2.1-.6 2.8 1.3.8 2-.7.2-.2.2 1.2 0l2.5-.5-2.5 2.9c-1.6 1.8-1.8 2.2-.4 1.1 1.8-1.6 2.2-1.6 4.2-.2 2.1 1.5 3.2 4.2 1.2 2.9-.5-.3-1-.4-1-.1 0 .3.9 1 2 1.6 1.6.9 1.9.8 1.4-.7-.5-1.7-.5-1.7.6 0 .6.9.8 2.2.5 2.7-.3.6.1.7 1 .4 2.5-1 4.7 1.6 4 4.5-.6 2.5-.6 2.5 1 .6 1.6-2 1.6-1.9 1.1.5-.3 1.4-.3 1.9 0 1.2.8-1.8 1.5-1.5 5.9 2.4 2.2 2.1 3.4 3.3 2.6 2.9-1-.6-1.2-.4-.7.4.5.7 1.5 1 2.3.6 1.3-.4 1.4-.3.4.9-1.1 1.3-.9 1.5.8 1.1 2-.4 7.1 3.8 7.1 5.7 0 .5.5.8 1.1.8.5 0 .7-.6.3-1.3-.4-.7-.3-.9.2-.4s.9 1.3.9 1.9c0 .6.8 1.2 1.8 1.4 2.8.4 3.1 1.2 1.6 3.1-.8.9-.9 1.4-.2 1 .6-.4 1.3-.2 1.6.5.2.7.3.5.2-.4-.2-1.1.3-1.8 1.2-1.8 1 0 1.3.6.9 1.5-.3.9.1 1.8.9 2.1.8.4 1.2 1.1.8 1.7-.4.6-.1.7.7.2 1-.6.9-1.1-.6-2.3-1.2-.9-1.4-1.3-.4-1 .8.2 2.3 2 3.3 3.9 1.8 3.2 1.8 3.3 1.2.5-.6-2.6-.5-2.7 1-1.2 1 .9 1.5 2.2 1.2 3-.3.7.1 1.3.9 1.3s1.3-.6 1-1.3c-.3-.8 0-1.1 1-.7.7.3 1.4.9 1.4 1.4 0 .4 2 1.7 4.5 2.8 2.5 1.1 4.8 2.7 5.1 3.6.4.9 1.3 1.4 2 1.1.8-.3 1.4-.1 1.4.5s.5.7 1 .4c.6-.3 1.3.1 1.6.9.3.9 1.5 1.6 2.5 1.6s1.9.5 1.9 1.1c0 .5-.4.8-.8.5-.4-.2-1.4.5-2.1 1.6-1.2 2-1.2 2 1.8-.1l3.1-2.2 2.6 2.6c1.4 1.4 2.9 2.3 3.4 2 1.1-.7 8 2.6 8 3.8 0 .5.6.7 1.4.4.7-.3 2.3.1 3.4.8 1 .8 2.3 1.1 2.7.7.5-.4.5-.1.1.6-.6 1.1-1.2 1-3-.1-2-1.3-2.2-1.3-2.3.4-.1 1 .2 2.1.8 2.4.5.3.6-.1.2-1.1-.5-1.4-.3-1.5 1.3-.6 1.3.7 2.6.7 3.7.1 1.1-.7 1.7-.6 1.7.1 0 .5.9 1 1.9 1 1.1 0 2.3.5 2.6 1 .4.6 1.1.7 1.7.4.7-.4.8-.2.4.4-.4.8.3 1.6 1.9 2.2 1.4.5 2.3 1.4 2 2-.3.5-.1 1 .4 1 1.8 0 1.2-1.8-1.1-3.4-2.6-1.9-1.9-2.1 1.6-.5 1.4.7 2.2 1.7 1.9 2.3-.4.6.2.4 1.2-.4 1.1-.9 1.6-1 1.1-.2s.1 1.2 2.1 1.4c4.2.2 4.6.3 7.3 1.8 1.4.7 2.6 1.3 2.8 1.2.1-.1.4-.1.7-.1.3.1.9.2 1.4.3.5 0 1.3.5 1.8 1s.2.6-.6.1c-1-.5-1.2-.4-.7.3.5.9 1.3.9 2.7.1 2.4-1.2 4.1-.2 1.9 1.1-1.1.7-1 .9.7.7 1.2 0 1.9-.5 1.7-.9-.9-1.4.2-.9 2.6 1.2 1.5 1.3 2.8 1.7 3.8 1.1.8-.5 2.8-.5 4.3-.1 1.5.5 3 .6 3.3.2.3-.3.6 0 .6.6s1.2.9 3 .7c1.6-.2 3.2 0 3.5.5.3.5 1.5.7 2.6.5 1.6-.3 1.9 0 1.4 1.4-.4 1.4-.1 1.8 1.7 1.7 2.8-.3 5 1.2 4.1 2.7-.3.6-.1.7.6.3.6-.4.9-1.2.6-1.7-.4-.5-.2-.9.4-.9.5 0 1.2.5 1.4 1 .3.6.4.5.3-.2-.2-.7-1-1.3-1.9-1.3-.8 0-1.9-.3-2.2-.7-.4-.4-1.3-.4-2.1-.1-.8.3-1.4 0-1.4-.5 0-.6 1-.9 2.3-.6 1.2.2 3.4.5 5 .6 2.8.2 4.4 2.8 3.1 4.9-.5.8-.3.9.5.4.7-.4 1.1-1.7.9-3-.3-1.3 0-2.2.9-2.2s1.1.8.7 2.1c-.4 1.6-.3 1.8.5.7 1-1.6 7.5-2.5 6.5-1-.3.5 0 .9.5.9.6 0 1.1-.5 1.1-1.1 0-.5.5-.7 1-.4.8.5.7 1.1-.1 2.1-.7.9-.8 1.4-.1 1.4.6 0 1.2-.6 1.5-1.3.2-.7 2.4-1.2 6-1.2 3-.1 5.3.3 5.1.7-.3.5-1 .5-1.6.2-.7-.4-.8-.2-.4.4.4.6 1.4.8 2.3.5 1.2-.5 1.4-.3.8.8-.5.8.4.3 1.8-1l2.6-2.4-.4 3.2c-.2 1.7 0 2.9.5 2.6.5-.3.6-1.3.3-2.1-.5-1.4-.3-1.5 1.5-.5 1.1.6 2.4 1.1 2.9 1.1.4-.1-.3-.7-1.6-1.4-1.5-.8-2-1.6-1.2-2 .6-.4 1.1-.3 1.1.3 0 1 1.8 1 3.7-.2 1.3-.8 2.7.8 1.9 2.1-.3.5.2.9 1 .9.9 0 1.3-.6.9-1.5-.3-.9 0-1.2.9-.9.7.3 1.9 0 2.6-.6 1-.9 1.1-.7.6 1.3-.6 2.1-.5 2.2.4.7.6-.9 1.5-1.5 2.1-1.2.5.4.9 0 .9-.7 0-.9.3-.9 1 .2.9 1.3 1.1 1.3 2 0 .6-1 1-1.1 1-.3 0 .7.8 1.3 1.8 1.3 1.3 0 1.4-.2.3-.9-.9-.6-.5-.8 1.5-.8 2.6 0 5.8 1.9 4.9 2.9-.3.3.2.5 1 .5 1.3 0 1.3-.3-.2-1.9-1.8-2-.4-2.5 1.6-.5 1 1 1.1.9.6-.3-.4-1.2.4-1.5 3.7-1.7 2.4-.1 5.5-.4 7.1-.7 2.5-.4 3.2.2 2.8 2.9-.1.5.9-.1 2.2-1.5 2.2-2.4 6.3-3.8 5-1.7-.3.6-.1.7.5.3.6-.4 2-.2 3 .3 1.4.7 1.9.6 1.9-.4 0-.7-.6-1.1-1.3-.8-.6.2-1.4 0-1.7-.4-.3-.5.6-.8 2.1-.8 1.5.1 3.2-.2 3.7-.6.6-.3 1.8-.7 2.8-.8.9 0 2.5-.2 3.5-.3.9 0 2.1-.6 2.5-1.2.6-.7.7-.4.3.6-.3 1-.1 1.8.4 1.8.6 0 1-.6 1-1.4 0-.9.7-1.2 2-.9 1.1.3 2 .9 2 1.4 0 .5.5.9 1.2.9.6 0 .3-1-.8-2.3-1-1.2-1.5-1.9-1-1.5.4.4 1.9.3 3.2-.2 3.9-1.5 7.4-1.9 7.4-.9 0 1.2 2.7 1.2 3.5-.1.3-.6-.1-.7-.9-.4-.9.3-1.6.2-1.6-.4 0-.6.8-.9 1.8-.7.9.2 1.7.4 1.7.5 0 .1 1.6.3 3.5.5 3 .3 3.2.3 1.2-.6-1.3-.5-2.9-.6-3.5-.3-.8.5-.9.4-.2-.3 1.5-1.6 5.9-2.8 5.1-1.4-.5.7-.1.9.8.5.9-.3 1.3-1.1.9-1.7-.4-.6 0-.8 1-.4 1 .3 1.7.2 1.7-.2 0-.5.9-.7 2-.4 1.4.4 2 0 2-1.1 0-1 .5-1.4 1-1.1.6.4 1.7.1 2.5-.5 1.1-.9 1.5-.9 1.5-.1 0 1.7 2.7 1.3 4.2-.7 1.7-2.3 3.2-3.2 6.5-3.8 2.4-.5 2.5-.3 1.2 1.2-1.2 1.6-1.2 1.7.1.9.8-.6 1.8-1 2.2-1 .3 0 1-.4 1.5-.9.4-.5.3-.6-.3-.3-.7.4-1.4 0-1.8-.8-.3-.8-.2-1.4.2-1.3.4.1 2.1-.5 3.7-1.2 1.7-.7 3.4-1.2 3.8-1.1.4.1 1.5-.6 2.4-1.4 1.6-1.6 3.9-1.5 3.6.2-.2 1.2 3.3 1 4.4-.2.5-.4.3-.6-.2-.2-.6.3-1.7.2-2.5-.3-1.3-.8-1.3-1.1-.1-2.2.8-.7 1.1-.8.8-.2-.3.6-.1 1.1.6 1.1s2.3.3 3.7.6c2.2.6 2.2.5-.2-.5-4.3-1.8-3.4-3.2 1.9-3.1.6 0 .9-.6.6-1.4-.3-.7-.2-1.3.3-1.1.5.1 2.1-.6 3.6-1.6 1.6-1 3.4-1.6 4.1-1.3.8.3 2 .1 2.8-.5 1.1-.8 1-.9-.3-.4-1 .3-1.8.1-1.8-.4 0-.6.7-1 1.6-1 .8 0 2.2-.7 3-1.5.8-.8 2.2-1.1 3.1-.8 1.1.4 1.4.3.9-.5-.4-.7-.2-1.2.4-1.2.6 0 .8-.5.4-1.2-.4-.6-.3-.8.3-.5.6.4 2.3-.3 3.9-1.5 1.5-1.3 2.4-1.6 2-.8-.5.8.5 0 2.1-1.9 2.2-2.6 3.2-3.1 3.8-2.1.5.9.4 1.1-.3.6-.8-.5-1-.1-.5 1 .5 1.5.7 1.5 1.5 0 .5-.9.6-2 .3-2.6-.5-.9 2.9-3.3 5-3.5.6-.1.9-.7.7-1.5-.3-1.1 0-1.1 1.2-.1 1.1.9 1.6.9 2.2 0 .4-.8.3-.9-.4-.5s-1.2.2-1.2-.3c0-.6.7-1.1 1.5-1.1s1.5.4 1.5 1c0 .5.5 1 1.2 1 .6 0 .3-1-.8-2.2-1-1.2-1.3-1.8-.6-1.4.6.4 1.2.2 1.2-.3 0-.6.4-1.1 1-1.1.5 0 .8.6.6 1.2-.1.7-.1 1 .1.6s1-.6 1.6-.4c.7.1.9.1.5-.1-1.4-.8-.9-3.3.7-4 .9-.3 2.2.3 3.1 1.3 1.4 1.8 1.4 1.8.4-.4-1.2-2.5-.6-4.2 1.5-4.2.7 0 1.6-.7 1.9-1.6.5-1.4.9-1.4 2.4-.3 1.5 1.3 1.6 1.2.4-.3-.8-.9-1.1-2.2-.7-2.8.9-1.5 2.5-1.2 1.9.4-.3.8-.2 1.6.3 1.9.5.3 1-.6 1.1-2 .2-3 4.8-7.7 6.8-6.9.8.3 1.4.1 1.4-.4 0-.6-.5-1-1.1-1-.6 0 1.4-2.5 4.5-5.5 3-3 6-5.5 6.7-5.5.8 0 .9.4 0 1.3-.8 1-.7 1.4.3 1.4 1.4 0 1.6-1.4.3-3.3-.7-1.2.1-2.4 1.5-2.4.5 0 .7.4.4.9-.3.5.2 1.5 1.2 2.2 1.6 1.3 1.6 1.3.2-.5-1.4-1.8-1.3-1.9.5-1.3 1.6.6 1.5.3-.5-1.3s-2.2-2-.7-2c.9 0 1.7-.5 1.7-1.1 0-.5.5-.7 1.2-.3.7.4.8.3.4-.4-.8-1.4 2.8-5.7 4.2-4.9.5.4.9 0 .9-.8s-.5-1.1-1-.8c-.6.4-.7.1-.3-.6.5-.7 1.4-1 2.2-.7.8.3 1.1 0 .8-.8-.7-1.9 3.6-6.8 5.4-6.1 1.1.4 1.2.2.4-.8-1.6-1.9 3.2-7.9 5.6-7 1.5.6 1.5.5.3-1-1.1-1.4-1.1-1.8.3-2.3.9-.3 2.2-.4 3-.1 1.5.6 1.6-1.7.1-3-.4-.4-.5-.2-.1.4.5.9.1 1.3-1.1 1.3-1.6 0-1.6-.1-.1-1.7 1.5-1.4 1.9-1.4 3.5-.2s1.6 1.1-.1-.9c-1.9-2.2-1.9-2.2.5-2.3 1.7-.1 1.9-.3.6-.6-.9-.2-1.5-.8-1.2-1.3.3-.5 1.3-.6 2.3-.3 1.5.6 1.5.4.4-.9-1.1-1.4-1-1.8.5-2.7 1-.6 1.4-1.1.8-1.1-.5 0-.3-.5.5-1s1.5-1.3 1.5-1.7c0-1.4 4.3-5.2 5.1-4.5.4.4.4.1-.1-.7-.7-1.2-1-1.1-2.2.4-.7 1.1-1.3 1.4-1.3.8 0-.6.6-1.6 1.4-2.2.8-.6 1.9-2.5 2.6-4.1.7-1.6 1.7-2.7 2.2-2.4.5.3.8 0 .7-.7-.5-2.5 1.2-5.8 3.2-6.4 1-.4 1.9-1.1 1.9-1.7 0-.6-.6-.6-1.5.2-1.9 1.6-2 .3-.1-1.5.7-.8 1.7-1.1 2-.7.4.3.4-.2 0-1.3-.6-1.4-.4-1.7.9-1.2 1.1.4 1.4.2 1-.8-.3-.8-.9-1.2-1.5-.9-.5.3-.4-.3.3-1.4.7-1.2 1.7-1.8 2.3-1.5.5.4.7-.1.3-1.1-1-2.6.9-5.6 3.3-5.1 1.4.3 1.8 0 1.3-.8-1-1.6-.8-7.8.3-8.6.5-.3 1.1-1.5 1.2-2.6.2-1.1.8-2.3 1.4-2.6.5-.3.9-.8.8-1-.5-1.1 1.4-7.9 2.2-7.9.5 0 .7.4.4.8-.2.4 0 1.4.6 2.2.8 1.2.9 1.2.5-.2-.3-.9-.1-1.9.6-2.2.9-.3.8-.5-.1-.5-.7-.1-1-.6-.6-1.3.4-.6.3-.8-.4-.4-.6.3-.9-.1-.7-1.1.2-1 .4-2.1.4-2.6.1-.4.5-.7 1.1-.7.5 0 .6.7.3 1.7-.4 1-.2 1.4.5.9.6-.3 1-1.5.9-2.6-.1-1-.6-1.6-1.2-1.2-.5.3-.4-.2.4-1.1.8-1 1.1-2 .8-2.4-1.2-1.2 1.3-4.2 3.3-3.8 1.1.2 2.2 0 2.5-.4.2-.5-.9-.7-2.5-.6-3.6.3-3.9-.7-.7-2.4 1.2-.6 1.5-1 .6-.7-1.4.4-1.5-.1-.7-3.5.6-2.2 1.5-3.6 2.1-3.2.6.4.7.1.1-.8-1.9-3.1-1-5.1 1.3-2.8.8.8 1.3.7 1.8-.3.5-.7.5-1 0-.6-.4.4-1.4.1-2.1-.7-1.5-1.5-1.9-2.9-.5-2.1.5.3.8-1.3.7-3.5 0-2.5.5-4.3 1.4-4.9.8-.5 1-1 .4-1s-1.1-.7-1.1-1.5c0-1.3.2-1.3 1.6-.1 1.2 1.1 2.1 1.2 3.1.5 1.3-.9 1.2-1-.2-.5-2 .6-4.1-2.4-3.3-4.6.6-1.7 1.6-9.3 1.8-14.6.1-2.4.7-4.2 1.3-4.2 1.3 0 1.3-1 0-4.9-.6-1.9-.4-2.8 1-3.9 1.8-1.4 1.8-1.4.1-.8-1.3.4-1.7.2-1.4-.6.2-.7 1.1-1.2 1.8-1 .9.1.8-.3-.3-1.1-2.2-1.7-2.3-3.1-.3-2.3 1.9.7 1.9.1-.1-1.8-.8-.9-1.1-1.6-.5-1.6.6 0 1.1-.5 1.1-1.1 0-.5-.4-.8-.8-.5-.7.4-.8-3.3-.2-4.2.7-.7.5-2.9-.2-4.5-.5-1-.5-1.7.1-1.7.5 0 1.2.6 1.4 1.2.3.8.6.6.6-.5.1-1-.6-1.7-1.6-1.8-1.1 0-1.3-.3-.5-.6.6-.2.9-.9.6-1.5-.4-.6-.8-3.1-.9-5.5-.2-4.4-.1-4.5 1.4-2.4 1.6 2.1 1.7 2.1 1.7.2 0-1.1-.2-1.8-.4-1.6-1.1 1.1-3-2.6-3.1-6.1 0-2.1-.3-5.2-.5-6.7-.2-2.1 0-2.7 1-2.3.8.3 1.4.1 1.4-.4 0-.6-.7-1-1.6-1-.8 0-1.2-.5-.9-1 .3-.6.1-1-.6-1-.8 0-.8-.4.1-1.5.9-1 .9-1.5.1-1.5-1.5 0-1.4-3.5.2-4.9.8-.6 1.6-1 1.8-.8.2.1-.1-.3-.8-.9-.7-.6-.9-1.5-.5-1.9.4-.5.2-.5-.5-.1s-1 1.3-.6 2.1c.3.8.1 1.5-.5 1.5s-.9-1.2-.7-2.7c.2-1.6-.1-3.5-.6-4.4-.5-1-.3-2.1.4-2.9.9-1 .9-1.1-.2-.5-1.1.6-1.3.1-.9-2.3.2-1.8 0-2.8-.5-2.5-.5.3-.6-.4-.2-1.7.5-1.5.4-2-.4-1.6-.7.5-1-.2-1-1.6.1-1.3-.3-3.5-.9-5.1-.6-1.5-.9-2.7-.6-2.7.4 0 .2-.6-.3-1.3-.6-.6-.9-2.2-.8-3.5.1-1.3-.2-2.5-.7-2.8-.4-.3-.8-1.6-.8-2.9 0-1.3-.5-2.7-1-3-.8-.5-.7-1.1.1-2.1 1-1.2 1-1.5-.1-1.2-.8.2-1.4-.2-1.5-.7 0-.6-.4-1.6-.8-2.2-.6-.9-.3-1.1 1-.7 1.4.4 1.3.1-.5-1.3-1.8-1.5-2-2.1-1-3.1 1.1-1.1 1-1.3-.2-1-1 .2-1.6-.6-1.8-2.5-.2-1.5-.7-2.7-1.1-2.7-.4 0-.8-.6-.8-1.3 0-1.7-5.3-14.9-6.7-16.6-.9-1.2-.8-1.3.4-.6 1.2.7 1.2.5-.1-1.1-2.7-3.2-3.4-4.8-1.8-3.9.8.4.4-.2-.9-1.4-1.2-1.2-2-2.6-1.7-3.2.4-.5.2-.9-.3-.9-.9 0-3.5-5.2-3.9-7.9-.1-.8-.8-1.8-1.5-2.2-.7-.5-.8-.9-.3-.9.6 0 .5-.4-.2-.8-.6-.4-1.3-1.4-1.5-2.2-.3-1.4-1.3-2.9-3.5-5.4-.7-.8-.9-1.6-.6-2 .4-.3.1-.6-.6-.6s-1-.4-.6-.9c.3-.5.1-1.2-.5-1.6-.6-.4-.8-1.1-.5-1.6.3-.5-.2-.6-1.1-.2-1.2.4-1.5.3-1-.5.4-.6-.4-2.1-1.8-3.3-1.4-1.2-2.3-2.5-2.1-2.9.3-.4-.6-1.9-2-3.4-1.3-1.4-2.1-2.6-1.8-2.6.4 0-.4-1.2-1.8-2.7-1.8-2.1-1.9-2.4-.4-1.3 1.1.7.1-.5-2.3-2.8-3.4-3.2-4.2-4.6-3.8-6.4.3-1.3.3-1.7 0-1.1-.8 1.9-2.7 1.6-2-.3.3-.8.2-1.2-.4-.9-.6.3-1-.4-1-1.7 0-1.8-.2-2-1-.8-.8 1.3-1 1.2-1-.3 0-.9.5-1.7 1.2-1.7.6 0 .8-.3.5-.6-.4-.4-1.4-.1-2.4.7-.9.8-1.4.9-1 .3.4-.7 0-1.5-.9-1.8-.8-.3-1.2-1-.9-1.6.3-.5-.1-1-.9-1-.9 0-1.6-.4-1.6-1 0-.5-1.3-2.3-3-3.8-1.6-1.6-2.7-3.2-2.3-3.5.3-.4-.1-.7-1-.7-1.6 0-1.9-.5-2.1-3.9-.1-.8-.8-1.6-1.6-1.8-1.2-.4-1.2-.3-.1.5.7.5.9 1.2.5 1.5-.5.3-1.7-.6-2.7-1.9-1-1.3-1.3-2.4-.7-2.4.6 0 .8-.5.4-1.1-.4-.8-.9-.7-1.5.2-.8 1.2-1.1 1.2-1.8-.1-.5-.8-.7-1.8-.4-2.4.4-.5-.1-.7-1.1-.3-1.3.5-1.7.3-1.3-.7.3-.8-.1-1.7-.9-2-1-.4-1.3-.2-.8.7.4.6-.2.3-1.3-.8s-1.9-2.3-1.7-2.6c.2-.4-.5-.9-1.6-1.2-1.1-.3-2.4-1.6-2.9-2.9-.6-1.2-1-1.7-1-1-.1.9-.8.7-2.1-.6-1.1-1-1.9-2.5-1.7-3.3.2-.8.2-1.1 0-.7-.7 1.3-1.6.9-4.5-1.5-1.4-1.2-3.8-3-5.2-4.1-1.4-1-2.3-2.3-1.9-2.9.4-.6 0-.8-1.1-.4-1.2.5-1.9 0-2.6-1.6-.5-1.2-.9-1.6-.9-.9-.1.9-.5 1-1.3.2-.7-.5-2.5-1.9-4-3-1.5-1.2-2.6-2.6-2.4-3.3.1-.7.1-.9-.1-.5-.3.5-.9.8-1.4.8-1.1 0-7.2-4.2-7.7-5.3-.2-.4-1-.7-1.8-.7s-1.4-.5-1.4-1c0-.6-.7-1-1.6-1-2 0-4.5-2.5-3.6-3.5.4-.5 0-.6-.9-.2-.9.3-2.9-.3-4.4-1.3-1.6-1.1-3.2-1.7-3.6-1.4-.4.2-1.1-.5-1.4-1.7-.6-1.7-.9-1.8-1.6-.8-.6 1.1-.9 1-1.5-.4-.3-.9-1-1.4-1.5-1.1-.5.3-.9 0-.9-.5 0-.6-.6-1-1.2-.8-.7.1-1.2-.4-1-1.2.3-1.2.1-1.2-1.4 0-1.6 1.2-1.7 1.2-1.2-.2.4-.9.1-1.6-.8-1.6-.7 0-1.1.4-.8.8.3.5-.8.1-2.5-.8-1.6-1-2.7-2.2-2.4-2.8.3-.5 0-.5-.6.1-.9.9-1.9.9-3.7 0-2.4-1.1-3-2.5-1.6-4.2.4-.5-.1-.1-1 .9-1 1.1-1.9 1.4-2.3.7-.3-.6-1.1-.7-1.7-.4-.7.5-.8.2-.4-.5.5-.8.3-1.2-.5-1-3.1.4-4.9-.2-4.9-1.5 0-.8-.4-1.8-1-2.1-.6-.4-.7.1-.3 1.1.5 1.4.3 1.5-1.5.5-1.2-.7-2.2-.9-2.2-.7 0 .3-2-.5-4.5-1.8-2.5-1.4-4.5-2-4.5-1.6 0 .5-.7.7-1.5.4-.8-.4-1.2-1-.9-1.6.3-.5 0-.9-.7-.7-3.5.4-7-.2-6.4-1.2.4-.6.1-1-.6-.8-2.9.3-5-.1-4.4-1.1.3-.6.1-1-.4-1-.6 0-1.1.5-1.1 1 0 .7-.6.7-1.9 0-1.1-.5-2.9-1-4-1-1.2 0-2.1-.6-2.1-1.3 0-.9-.2-.9-.9.1-.6 1.1-1 1-1.5-.3-.5-1.4-.9-1.5-2.1-.5-1.5 1.2-2.1.4-1.6-2.3.1-.5-.3-.6-.9-.2-.6.3-.8 1.1-.4 1.6 1 1.7-5.6.2-7.7-1.7-1.7-1.5-1.9-1.6-1.4-.2.5 1.3.2 1.5-1.4 1.1-1.2-.3-2.1-1-2.1-1.7 0-.6-.5-.4-1 .4-.7 1.1-1 1.1-1 .2 0-.7-.4-1-1-.7-.5.3-1 0-1-.7 0-.8-.3-.9-.8-.3-.4.6-1.3 1-1.9.9-.7-.1-2.5-.2-3.9-.3-2-.1-2.5-.5-2-1.9s.3-1.3-.9.3c-1.4 1.7-1.7 1.8-2.5.5-.9-1.3-1-1.3-1.1 0 0 1-.3.8-.9-.5l-.9-2v2c-.1 1.4-.4 1.6-.9.7-.5-.7-1.6-1-2.4-.7-.9.4-1.9.1-2.3-.4-.3-.6-1.1-.8-1.7-.5-.6.4-3.4.6-6.2.4-2.8-.1-7-.3-9.3-.3-2.4 0-4.3-.4-4.3-.9 0-.4-.5-.8-1.1-.8-.5 0-.7.4-.4 1zm296 320.9c.3.5.2 1.2-.3 1.5-.5.3-.9-.1-.9-.9 0-1.7.3-1.9 1.2-.6zm-21.8 91c0 1.1-.5 1.8-.9 1.5-.4-.3-.5-1.1-.1-1.9.7-2.1 1.2-1.9 1 .4zm-505.2 71c-.3.5-.1 1.2.5 1.6.5.3 1 1 1 1.6 0 .5-.9.4-1.9-.3-1.5-.9-1.7-1.5-.9-2.5 1.2-1.5 2.2-1.8 1.3-.4zm337.9 92.3c-.3.4-.9.8-1.5.8-.5 0-.9-.4-.9-.8 0-.5.7-.9 1.5-.9s1.2.4.9.9zM246 604c0 .5-.2 1-.4 1-.3 0-.8-.5-1.1-1-.3-.6-.1-1 .4-1 .6 0 1.1.4 1.1 1zm112 5.4c0 .3-.4.8-1 1.1-.5.3-1 .1-1-.4 0-.6.5-1.1 1-1.1.6 0 1 .2 1 .4z"/><path d="M270.9 19.7c-1.3 1.6-1.2 1.7.4.4.9-.7 1.7-1.5 1.7-1.7 0-.8-.8-.3-2.1 1.3zM274.6 20.2c.3.5 1 .6 1.5.3 1.3-.9 1.1-1.2-.6-1.2-.8 0-1.2.4-.9.9zM251.5 24c.3.5.8 1 1.1 1 .2 0 .4-.5.4-1 0-.6-.5-1-1.1-1-.5 0-.7.4-.4 1zM229.5 28.1c-.3.4.2.6 1 .5 2.1-.3 2.8-1.3 1-1.3-.9 0-1.8.4-2 .8zM414.7 34.1c.7.7 1.5 1 1.8.7.3-.3-.2-.9-1.2-1.2-1.4-.6-1.5-.5-.6.5zM466.7 58.1c.7.7 1.5 1 1.8.7.3-.3-.2-.9-1.2-1.2-1.4-.6-1.5-.5-.6.5zM474 62.9c0 1 1.9 2.5 2.5 2 .1-.2-.3-1-1.1-1.7s-1.4-.8-1.4-.3zM479 66c0 .5.5 1 1.1 1 .5 0 .7-.5.4-1-.3-.6-.8-1-1.1-1-.2 0-.4.4-.4 1zM141.5 70c.3.5.8 1 1.1 1 .2 0 .4-.5.4-1 0-.6-.5-1-1.1-1-.5 0-.7.4-.4 1zM487.4 71.8c.4.3 1.4.7 2.2.8.9.1 1.3 0 1-.4-.4-.3-1.4-.7-2.2-.8-.9-.1-1.3 0-1 .4zM131 79.5c-.7.9-.8 1.5-.2 1.5.5 0 1.2-.7 1.6-1.5.3-.8.4-1.5.2-1.5s-.9.7-1.6 1.5zM499.4 79.1c-.3.6-.2 1.5.3 2s.9.1.9-1.1c0-2.3-.2-2.4-1.2-.9zM126 85c-.6 1.1-.8 2-.6 2 .3 0 1-.9 1.6-2 .6-1.1.8-2 .6-2-.3 0-1 .9-1.6 2zM106.8 100.7c.7.3 1.6.2 1.9-.1.4-.3-.2-.6-1.3-.5-1.1 0-1.4.3-.6.6zM536 116.4c0 .2.7.7 1.6 1 .8.3 1.2.2.9-.4-.6-1-2.5-1.4-2.5-.6zM551.5 135c.3.5.8 1 1.1 1 .2 0 .4-.5.4-1 0-.6-.5-1-1.1-1-.5 0-.7.4-.4 1zM555.5 136.9c-.3.5-.2 1.2.3 1.5.5.3.9-.1.9-.9 0-1.7-.3-1.9-1.2-.6zM559.5 144c.3.5.8 1 1.1 1 .2 0 .4-.5.4-1 0-.6-.5-1-1.1-1-.5 0-.7.4-.4 1zM561 146c-.9.6-1 1-.3 1 .6 0 1.5-.5 1.8-1 .8-1.2.4-1.2-1.5 0zM65.5 150c-.3.5-.1 1 .4 1 .6 0 1.1-.5 1.1-1 0-.6-.2-1-.4-1-.3 0-.8.4-1.1 1zM562 149.5c0 .7 3 1.3 3.4.7.3-.4-.4-.9-1.5-.9-1-.1-1.9 0-1.9.2zM569 156c0 .5.5 1 1.1 1 .5 0 .7-.5.4-1-.3-.6-.8-1-1.1-1-.2 0-.4.4-.4 1zM58.8 162.7c.7.3 1.6.2 1.9-.1.4-.3-.2-.6-1.3-.5-1.1 0-1.4.3-.6.6zM573 164.1c0 .5.5.7 1 .4.6-.3 1-.8 1-1.1 0-.2-.4-.4-1-.4-.5 0-1 .5-1 1.1zM56.1 165.9c-.8.5-.9 1.1-.3 1.5.5.3 1.2-.1 1.6-.9.6-1.7.6-1.8-1.3-.6zM579 174c0 .5.5 1 1.1 1 .5 0 .7-.5.4-1-.3-.6-.8-1-1.1-1-.2 0-.4.4-.4 1zM581 181.9c0 .6.4 1.2.8 1.5.5.3.9-.1.9-.9s-.4-1.5-.9-1.5c-.4 0-.8.4-.8.9zM583.5 185.9c-.6 1.1 1.3 2.6 2.2 1.7.4-.3.1-.6-.6-.6s-.9-.5-.6-1c.3-.6.4-1 .1-1-.3 0-.7.4-1.1.9zM44 188.5c-1.9 2.2-.8 2.5 1.3.3.9-1 1.3-1.8.8-1.8s-1.4.7-2.1 1.5zM41.3 193.5c0 .8.4 1.2.9.9.5-.3.6-1 .3-1.5-.9-1.3-1.2-1.1-1.2.6zM590.7 200.1c.7.7 1.5 1 1.8.7.3-.3-.2-.9-1.2-1.2-1.4-.6-1.5-.5-.6.5zM35.9 204.7c-1.2 1.6-1.2 1.7.2.6.9-.7 1.9-1 2.2-.6.4.3.7.1.7-.5 0-1.7-1.6-1.5-3.1.5zM593 208.1c0 .5.5.7 1 .4.6-.3 1-.8 1-1.1 0-.2-.4-.4-1-.4-.5 0-1 .5-1 1.1zM596.1 216.6c0 1.1.3 1.4.6.6.3-.7.2-1.6-.1-1.9-.3-.4-.6.2-.5 1.3zM31.5 220c.3.5.8 1 1.1 1 .2 0 .4-.5.4-1 0-.6-.5-1-1.1-1-.5 0-.7.4-.4 1zM30.5 224c-.3.5-.1 1 .4 1 .6 0 1.1-.5 1.1-1 0-.6-.2-1-.4-1-.3 0-.8.4-1.1 1zM601.5 229.9c-.3.5-.2 1.2.3 1.5.5.3.9-.1.9-.9 0-1.7-.3-1.9-1.2-.6zM27.3 235.5c0 .8.4 1.2.9.9.5-.3.6-1 .3-1.5-.9-1.3-1.2-1.1-1.2.6zM25.6 239.7c-.6 1.4-.5 1.5.5.6.7-.7 1-1.5.7-1.8-.3-.3-.9.2-1.2 1.2zM607.3 247.1c-.2 2.3.3 2.5 1 .4.4-.8.3-1.6-.1-1.9-.4-.3-.9.4-.9 1.5zM21 258c0 .5.5 1 1.1 1 .5 0 .7-.5.4-1-.3-.6-.8-1-1.1-1-.2 0-.4.4-.4 1zM19.7 262.5c-.6 1.5 1 3.2 2 2.1.4-.3.1-.6-.5-.6s-.9-.7-.6-1.5c.4-.8.4-1.5.1-1.5-.3 0-.7.7-1 1.5zM609.4 264.1c-.3.6-.2 1.5.3 2s.9.1.9-1.1c0-2.3-.2-2.4-1.2-.9zM610 276.2c0 .4.7.8 1.5.8s1.5-.4 1.5-.8c0-.5-.7-.9-1.5-.9s-1.5.4-1.5.9zM613.3 291.9c0 1.1.5 1.8.9 1.5.4-.3.5-1.1.1-1.9-.7-2.1-1.2-1.9-1 .4zM15.4 291.8c.4.3 1.4.7 2.2.8.9.1 1.3 0 1-.4-.4-.3-1.4-.7-2.2-.8-.9-.1-1.3 0-1 .4zM15.8 294.7c.7.3 1.6.2 1.9-.1.4-.3-.2-.6-1.3-.5-1.1 0-1.4.3-.6.6zM612.6 296.2c.3.4.9.8 1.5.8.5 0 .9-.4.9-.8 0-.5-.7-.9-1.5-.9s-1.2.4-.9.9zM612 303.4c0 .2.8 1 1.8 1.7 1.5 1.3 1.6 1.2.3-.4s-2.1-2.1-2.1-1.3zM16.1 313.9c-.8.5-.9 1.1-.3 1.5.5.3 1.2-.1 1.6-.9.6-1.7.6-1.8-1.3-.6zM615.5 319c-.4.6-1.1.8-1.6.5-.5-.4-.9-.1-.9.4 0 1.6 1.6 1.3 3-.4.7-.8 1-1.5.7-1.5-.3 0-.9.5-1.2 1zM14.7 320.1c.7.7 1.5 1 1.8.7.3-.3-.2-.9-1.2-1.2-1.4-.6-1.5-.5-.6.5zM615 327.9c0 .6.4 1.3 1 1.6.6.3.7-.1.4-.9-.7-1.8-1.4-2.1-1.4-.7zM613.3 334.8c-1 .7-1 1.2 0 2.5 1.1 1.6 1.2 1.5 1.2-.8V334l-1.2.8zM17 339.4c0 .2.7.7 1.6 1 .8.3 1.2.2.9-.4-.6-1-2.5-1.4-2.5-.6zM17 350.1c0 .5.5.7 1 .4.6-.3 1-.8 1-1.1 0-.2-.4-.4-1-.4-.5 0-1 .5-1 1.1zM610.6 351.8c-.3.5.1.9.9.9s1.2-.4.9-.9c-.3-.4-.7-.8-.9-.8-.2 0-.6.4-.9.8zM19.9 353.2c-.5 1.8-.6 3.8-.1 3.4.7-.8 1.2-3.6.6-3.6-.2 0-.4.1-.5.2zM15 356.4c0 .2.8 1 1.8 1.7 1.5 1.3 1.6 1.2.3-.4s-2.1-2.1-2.1-1.3zM609.5 362c.3.5.8 1 1.1 1 .2 0 .4-.5.4-1 0-.6-.5-1-1.1-1-.5 0-.7.4-.4 1zM20.6 368.2c.3.5 1 .6 1.5.3 1.3-.9 1.1-1.2-.6-1.2-.8 0-1.2.4-.9.9zM607.6 370.7c-.6 1.4-.5 1.5.5.6.7-.7 1-1.5.7-1.8-.3-.3-.9.2-1.2 1.2zM23 374.9c0 .6.4 1.3 1 1.6.6.3.7-.1.4-.9-.7-1.8-1.4-2.1-1.4-.7zM21 375.9c0 .6.4 1.3 1 1.6.6.3.7-.1.4-.9-.7-1.8-1.4-2.1-1.4-.7zM21.6 380.2c.3.4 1.1.5 1.9.1 2.1-.7 1.9-1.2-.4-1-1.1 0-1.8.5-1.5.9zM23.3 386.5c0 .8.4 1.2.9.9.5-.3.6-1 .3-1.5-.9-1.3-1.2-1.1-1.2.6zM29.8 407.7c.5 2.1.7 2.3 1 .9.2-1 0-2.2-.6-2.8-.6-.6-.7 0-.4 1.9zM595.2 418.9c-1.1.7-1.1.9 0 1.4.9.3 1.5-.1 1.5-.9s-.1-1.4-.1-1.4c-.1 0-.7.4-1.4.9zM34.6 421.7c-.6 1.4-.5 1.5.5.6.7-.7 1-1.5.7-1.8-.3-.3-.9.2-1.2 1.2zM594 424.1c0 .5.5.7 1 .4.6-.3 1-.8 1-1.1 0-.2-.4-.4-1-.4-.5 0-1 .5-1 1.1zM591.5 426c.3.5.8 1 1.1 1 .2 0 .4-.5.4-1 0-.6-.5-1-1.1-1-.5 0-.7.4-.4 1zM37.3 432.9c0 1.1.5 1.8.9 1.5.4-.3.5-1.1.1-1.9-.7-2.1-1.2-1.9-1 .4zM41 433c0 .5.5 1 1.1 1 .5 0 .7-.5.4-1-.3-.6-.8-1-1.1-1-.2 0-.4.4-.4 1zM587.5 435c-.3.6.1.7.9.4 1.8-.7 2.1-1.4.7-1.4-.6 0-1.3.4-1.6 1zM42.5 436.9c-.6 1.1 1.3 2.6 2.2 1.7.4-.3.1-.6-.6-.6s-.9-.5-.6-1c.3-.6.4-1 .1-1-.3 0-.7.4-1.1.9zM588 437.4c0 .2.7.7 1.6 1 .8.3 1.2.2.9-.4-.6-1-2.5-1.4-2.5-.6zM44.3 441.6c.9 1.1 1.5 2.4 1.2 2.7-.3.4-.2.5.2.2.3-.3 1.2.3 2 1.3 1.3 1.6 1.3 1.5.4-.3-.5-1.1-2-2.9-3.3-4l-2.3-2 1.8 2.1zM45.5 448c.3.5.8 1 1.1 1 .2 0 .4-.5.4-1 0-.6-.5-1-1.1-1-.5 0-.7.4-.4 1zM584 450c-.8.5-1.2 1.2-.9 1.5.4.3 1.2-.1 1.9-1 1.4-1.7 1.1-1.9-1-.5zM580.6 452.3c.3 1 .9 1.5 1.2 1.2.3-.3 0-1.1-.7-1.8-1-.9-1.1-.8-.5.6zM46.6 453.8c-.3.5.1.9.9.9s1.5-.4 1.5-.9c0-.4-.4-.8-.9-.8-.6 0-1.2.4-1.5.8zM579 456.9c0 .6.4 1.3 1 1.6.6.3.7-.1.4-.9-.7-1.8-1.4-2.1-1.4-.7zM51.6 458.7c-.6 1.4-.5 1.5.5.6.7-.7 1-1.5.7-1.8-.3-.3-.9.2-1.2 1.2zM575.5 461.1c-.4.6-.5 1.2-.2 1.5.2.3.7-.2 1-1.1.7-1.7.1-2-.8-.4zM53.5 463.9c-.3.5-.2 1.2.3 1.5.5.3.9-.1.9-.9 0-1.7-.3-1.9-1.2-.6zM577 464.1c0 .5.5.7 1 .4.6-.3 1-.8 1-1.1 0-.2-.4-.4-1-.4-.5 0-1 .5-1 1.1zM571.8 469.7c.7.3 1.6.2 1.9-.1.4-.3-.2-.6-1.3-.5-1.1 0-1.4.3-.6.6zM59.4 471.1c-.3.6-.1 1.6.5 2.2.9.9 1 .7.5-.7-.6-1.6-.4-1.8 1-1.3 1 .4 1.5.3 1.1-.3-.8-1.3-2.2-1.3-3.1.1zM63 476c-.9.6-1 1-.3 1 .6 0 1.5-.5 1.8-1 .8-1.2.4-1.2-1.5 0zM66.1 478.7c.7 1.2 1.5 2 1.8 1.7.3-.2-.3-1.2-1.3-2.2-1.7-1.6-1.8-1.6-.5.5zM65 482c0 .5.5 1 1.1 1 .5 0 .7-.5.4-1-.3-.6-.8-1-1.1-1-.2 0-.4.4-.4 1zM71.4 488.2c-.4.7-.3.8.4.4s1.2-.3 1.2.3c0 .5-.5 1.2-1 1.4-.6.3-.5.4.2.3.7-.2 2.2.4 3.2 1.3 1.7 1.3 1.6 1.1-.3-1.7-2.5-3.6-2.7-3.7-3.7-2zM553.9 492.2c-1.4 2-1.7 2.8-.7 2 1.3-1 2.2-1.1 4-.2 2.2 1.1 2.2 1-.2-.9-2.2-1.8-2.1-2.6.3-2.2.5.1.6-.3.2-.9-.9-1.5-1.1-1.3-3.6 2.2zM554 496.1c0 .5.5.7 1 .4.6-.3 1-.8 1-1.1 0-.2-.4-.4-1-.4-.5 0-1 .5-1 1.1zM549.3 498.2c-2.1 2.7-2.2 3.6-.8 4.1.9.4 1.2.1.8-1-.3-.8 0-1.9.8-2.3.7-.5 1.1-1.2.8-1.5-.4-.3-1.1 0-1.6.7zM78.7 500.1c.7.7 1.5 1 1.8.7.3-.3-.2-.9-1.2-1.2-1.4-.6-1.5-.5-.6.5zM547 505c-.9.6-1 1-.3 1 .6 0 1.5-.5 1.8-1 .8-1.2.4-1.2-1.5 0zM81 505.4c0 .2.7.7 1.6 1 .8.3 1.2.2.9-.4-.6-1-2.5-1.4-2.5-.6zM86 507c-.9.6-1 1-.3 1 .6 0 1.5-.5 1.8-1 .8-1.2.4-1.2-1.5 0zM542.7 508.1c.7.7 1.5 1 1.8.7.3-.3-.2-.9-1.2-1.2-1.4-.6-1.5-.5-.6.5zM541 510c0 .5.5 1 1.1 1 .5 0 .7-.5.4-1-.3-.6-.8-1-1.1-1-.2 0-.4.4-.4 1zM88.8 511.7c.6.2 1 .9.7 1.3-.3.5 0 1.2.6 1.6.8.4.9.3.5-.4s-.1-1.2.6-1.2c.9 0 .9-.3-.2-1-.8-.5-1.9-.9-2.5-.9-.5 0-.4.3.3.6zM539 513.9c0 .6.4 1.2.8 1.5.5.3.9-.1.9-.9s-.4-1.5-.9-1.5c-.4 0-.8.4-.8.9zM93 518c0 .5.5 1 1.1 1 .5 0 .7-.5.4-1-.3-.6-.8-1-1.1-1-.2 0-.4.4-.4 1zM527.1 524c-1.7 1.7-3.1 3.7-3.1 4.3 0 .7.9-.2 2-1.8 1.1-1.7 2-2.6 2-2.2 0 .5.7.1 1.6-.8.9-.9 1.4-1.8 1.1-2.1-.2-.3-1.9.9-3.6 2.6zM101.5 526.1c-.3.4.2.6 1 .5 2.1-.3 2.8-1.3 1-1.3-.9 0-1.8.4-2 .8zM519.5 532c-.3.5-.1 1 .4 1 .6 0 1.1-.5 1.1-1 0-.6-.2-1-.4-1-.3 0-.8.4-1.1 1zM112.2 533.4c.7.8 1.5 1.2 1.7 1.1.5-.6-1-2.5-2-2.5-.5 0-.4.6.3 1.4zM108.6 533.8c-.3.5.1.9.9.9s1.2-.4.9-.9c-.3-.4-.7-.8-.9-.8-.2 0-.6.4-.9.8zM516.3 535.7c0 .9.4 1 1.4.2.7-.6 1.3-1.2 1.3-1.4 0-.1-.6-.2-1.3-.2-.8 0-1.4.6-1.4 1.4zM113.5 539.9c-.3.5-.2 1.2.3 1.5.5.3.9-.1.9-.9 0-1.7-.3-1.9-1.2-.6zM117.4 540.2c-.5.8-.2.9 1 .5 1.4-.6 1.7-.3 1.2 1-.6 1.4-.4 1.5.5.6 1.2-1.2.5-3.3-1.1-3.3-.5 0-1.2.5-1.6 1.2zM507 544c0 .5.9 1.4 2 2 1.1.6 2 .9 2 .8 0-.2-.9-1.1-2-2.1-1.1-.9-2-1.3-2-.7zM122.9 545.9c.8.5 1 1.4.6 2.2-.6 1.1-.5 1.1.5.2 1.4-1.2.6-3.3-1.3-3.3-.8 0-.7.3.2.9zM129 548c0 .5.5 1 1.1 1 .5 0 .7-.5.4-1-.3-.6-.8-1-1.1-1-.2 0-.4.4-.4 1zM131 550.7c.5.2.8.9.5 1.3-.3.5.5 1.4 1.7 2 2.2 1.1 2.2 1.1.3-.5-1.1-.9-1.9-1.9-1.7-2.3.2-.3-.1-.7-.7-.9-.7-.1-.8 0-.1.4zM490 555.9c0 .9 3 2.4 3.6 1.8.2-.1-.6-.8-1.6-1.5-1.1-.7-2-.8-2-.3zM495.6 556.7c-.6 1.4-.5 1.5.5.6.7-.7 1-1.5.7-1.8-.3-.3-.9.2-1.2 1.2zM488.2 558.4c.7.8 1.5 1.2 1.7 1.1.5-.6-1-2.5-2-2.5-.5 0-.4.6.3 1.4zM487 562.1c0 .5.5.7 1 .4.6-.3 1-.8 1-1.1 0-.2-.4-.4-1-.4-.5 0-1 .5-1 1.1zM481.8 563.2c-.7 1.7 1.5 1.9 2.9.3.4-.4.3-.5-.4-.2-.6.4-1.3.2-1.5-.5-.3-.8-.6-.6-1 .4zM475.9 566.7c-1.2 1.6-1.2 1.7.2.6.9-.7 1.9-1 2.2-.6.4.3.7.1.7-.5 0-1.7-1.6-1.5-3.1.5zM155.6 567.9c-.3.5.1 1.2 1 1.5 2.2.8 2.5.4.9-1.1-.8-.7-1.6-.9-1.9-.4zM160.8 570.3c.7.8.9 1.7.5 2-.3.4-.1.7.5.7 1.8 0 1.4-2.7-.4-3.4-1.3-.5-1.4-.4-.6.7zM469.6 569.8c-.2.4-.1 1.4.4 2.2.7 1.1.9.9.7-.8-.1-2.4-.3-2.6-1.1-1.4zM473.5 570.1c-.4.6-.5 1.2-.2 1.5.2.3.7-.2 1-1.1.7-1.7.1-2-.8-.4zM163.8 572.8c-.3 1.1 0 1.9.7 1.9s1-.8.7-1.9c-.2-1-.6-1.8-.7-1.8-.1 0-.5.8-.7 1.8zM461 575.1c0 .5.5.7 1 .4.6-.3 1-.8 1-1.1 0-.2-.4-.4-1-.4-.5 0-1 .5-1 1.1zM467.1 575.6c0 1.1.3 1.4.6.6.3-.7.2-1.6-.1-1.9-.3-.4-.6.2-.5 1.3zM171.3 576.8c.2 1.2.6 2.4 1 2.8.3.4.4-.4.2-1.6-.6-3-1.6-4-1.2-1.2zM458.5 576c-.3.5-.1 1 .4 1 .6 0 1.1-.5 1.1-1 0-.6-.2-1-.4-1-.3 0-.8.4-1.1 1zM463.5 576.1c-.4.6-.5 1.2-.2 1.5.2.3.7-.2 1-1.1.7-1.7.1-2-.8-.4zM457 578.9c0 .6.4 1.3 1 1.6.6.3.7-.1.4-.9-.7-1.8-1.4-2.1-1.4-.7zM178.7 580.1c.7.7 1.5 1 1.8.7.3-.3-.2-.9-1.2-1.2-1.4-.6-1.5-.5-.6.5zM177.4 582.4c.1.8.5 1.8.8 2.2.4.3.5-.1.4-1-.1-.8-.5-1.8-.8-2.2-.4-.3-.5.1-.4 1zM181.1 583.6c0 1.1.3 1.4.6.6.3-.7.2-1.6-.1-1.9-.3-.4-.6.2-.5 1.3zM183.9 584.7c-1.3 1.6-1.2 1.7.4.4 1.6-1.3 2.1-2.1 1.3-2.1-.2 0-1 .8-1.7 1.7zM443.6 583.8c-.2.4-.1 1.4.4 2.2.7 1.1.9.9.7-.8-.1-2.4-.3-2.6-1.1-1.4zM186 585.5c-.7.9-.8 1.5-.2 1.5.5 0 1.2-.7 1.6-1.5.3-.8.4-1.5.2-1.5s-.9.7-1.6 1.5zM189.5 586c.3.5 1.1 1 1.6 1 .6 0 .7-.5.4-1-.3-.6-1.1-1-1.6-1-.6 0-.7.4-.4 1zM440 587c-2.3.7-2.3.8-.3.9 1.2.1 2.5-.4 2.8-.9.3-.6.5-1 .3-.9-.2.1-1.4.5-2.8.9zM187.5 587.9c-.3.5-.2 1.2.3 1.5.5.3.9-.1.9-.9 0-1.7-.3-1.9-1.2-.6zM435.6 588.5c.4.8.8 1.5 1 1.5.2 0 .4-.7.4-1.5s-.4-1.5-1-1.5c-.5 0-.7.7-.4 1.5zM427.7 590.7c-1 .9-.9 2.3.1 2.3.5 0 .9-.7.9-1.5 0-1.7-.1-1.8-1-.8zM201.2 592.7c.2.9 1.1 1.7 2.1 1.9.9.1 1.5-.2 1.1-.7-.3-.5-1-.6-1.6-.3-.7.5-.9.1-.5-.9.3-1 .2-1.7-.4-1.7-.6 0-.9.7-.7 1.7zM195.6 594.2c.3.5 1 .6 1.5.3 1.3-.9 1.1-1.2-.6-1.2-.8 0-1.2.4-.9.9zM425 594c0 .5.5 1 1.1 1 .5 0 .7-.5.4-1-.3-.6-.8-1-1.1-1-.2 0-.4.4-.4 1zM206.8 594.7c.6.2 1 .8.8 1.2-.3.4.1.8.9.8 1.1 0 1.2-.4.4-1.4-.6-.7-1.7-1.3-2.3-1.2-.7 0-.6.2.2.6zM417.1 596.6c0 1.1.3 1.4.6.6.3-.7.2-1.6-.1-1.9-.3-.4-.6.2-.5 1.3zM217 599.4c0 .8.4 1.7.9 2 .5.4.7-.3.4-1.4-.6-2.3-1.3-2.6-1.3-.6zM226 599.5c.6.8.9 1.8.7 2.2-.3.5.3.9 1.3.9 1.8 0 1.8-.2-.2-2.3-2.4-2.5-3.8-3.2-1.8-.8zM411 598.9c0 .7-.4.9-1 .6-.5-.3-1-.1-1 .4 0 .6.4 1.1.9 1.1 1.3 0 2.5-2 1.7-2.7-.3-.4-.6-.1-.6.6zM221.5 600.9c-.3.5 0 1.3.6 1.7.8.5.9.3.4-.6-.6-1-.4-1.2.8-.7 1 .3 1.7.2 1.7-.3 0-1.3-2.7-1.3-3.5-.1zM231 602c.6 1.1 1.3 2 1.6 2 .2 0 0-.9-.6-2s-1.3-2-1.6-2c-.2 0 0 .9.6 2zM391.9 602.2c0 .2-.2 1.1-.4 2.1-.3 1.5-.1 1.6 1.1.6.7-.6 1.1-1.5.8-2-.5-.9-1.3-1.2-1.5-.7zM388 604c-1.3.8-1.2 1 .3 1 .9 0 1.7-.5 1.7-1 0-1.2-.1-1.2-2 0zM403 603.9c0 .6.4 1.3 1 1.6.6.3.7-.1.4-.9-.7-1.8-1.4-2.1-1.4-.7zM233.5 605c-.4.6.1.7 1.1.3 1.3-.5 1.5-.3.9.7-.5.9-.4 1.1.4.6.6-.4.9-1.2.6-1.7-.8-1.2-2.2-1.2-3 .1zM241.3 607.1c-.2 2.3.3 2.5 1 .4.4-.8.3-1.6-.1-1.9-.4-.3-.9.4-.9 1.5zM394 606c-.8.5-1 1-.5 1 .6 0 1.7-.5 2.5-1s1.1-1 .5-1c-.5 0-1.7.5-2.5 1zM250.4 606.8c-1.3.8-1.5 4.4-.2 3.6.5-.3.6-.9.3-1.4-.3-.5.3-1.3 1.2-1.9 1-.6 1.4-1 .8-1.1-.5 0-1.5.4-2.1.8zM245.3 608.5c0 .8.4 1.2.9.9.5-.3.6-1 .3-1.5-.9-1.3-1.2-1.1-1.2.6zM253.7 608.9c-.4 1.7-.3 2.1.5 1.3.5-.5.8-1.6.6-2.3-.3-.8-.7-.3-1.1 1zM258.5 607.8c.3.3 0 1.1-.6 1.9-.6.7-.7 1.3-.3 1.3.5 0 1.4-.8 2.1-1.8.9-1.5.8-1.9-.3-1.9-.8 0-1.2.3-.9.5zM372 608.4c.7.7 1.3.7 2 0 .6-.6.3-1-1-1s-1.6.4-1 1zM376 607.4c0 .2.7.7 1.6 1 .8.3 1.2.2.9-.4-.6-1-2.5-1.4-2.5-.6zM262 609c-.9.6-1 1-.3 1 .6 0 1.5-.5 1.8-1 .8-1.2.4-1.2-1.5 0zM352 610.7c.5.2 1 1.1 1 1.8 0 .8.4 1.7 1 2 .6.4.7-.2.1-1.6-.4-1.3-1.3-2.4-2-2.5-.6-.1-.7 0-.1.3zM261.6 612.2c.3.5 1 .6 1.5.3 1.3-.9 1.1-1.2-.6-1.2-.8 0-1.2.4-.9.9zM283.6 612.1c.2.4-.4 1.2-1.3 1.8-1 .6-1.3 1.1-.7 1.1.6 0 1.8-.8 2.7-1.8 1.4-1.5 1.5-1.9.2-1.9-.8 0-1.2.4-.9.8zM343.1 612.7c-.7 1.5-.5 1.8 1.5 1.8s2.2-.2.9-1.1c-.8-.6-1.2-1.4-.8-1.7.3-.4.3-.7 0-.7s-1.1.8-1.6 1.7zM347.7 613.1c1.2 1.2 2.4 2.1 2.7 1.8.2-.2-.8-1.3-2.2-2.3l-2.7-1.9 2.2 2.4zM361.5 612c-.3.5-.1 1 .4 1 .6 0 1.1-.5 1.1-1 0-.6-.2-1-.4-1-.3 0-.8.4-1.1 1zM292.6 613.7c-.6 1.4-.5 1.5.5.6.7-.7 1-1.5.7-1.8-.3-.3-.9.2-1.2 1.2zM297.5 612.9c-.3.6-1.1.9-1.6.6-.5-.4-.9-.1-.9.4 0 1.3 1 1.4 3 .1.8-.5 1.2-1.2.8-1.5-.3-.4-.9-.1-1.3.4zM334 613.5c-.7.9-.8 1.5-.2 1.5.5 0 1.2-.7 1.6-1.5.3-.8.4-1.5.2-1.5s-.9.7-1.6 1.5zM314.1 615.6c0 1.1.3 1.4.6.6.3-.7.2-1.6-.1-1.9-.3-.4-.6.2-.5 1.3zM324.4 615.6c-1.8 1.4-1.8 1.5.4.4 1.2-.6 2.2-1.3 2.2-1.5 0-.8-.5-.6-2.6 1.1zM329.1 615.6c0 1.1.3 1.4.6.6.3-.7.2-1.6-.1-1.9-.3-.4-.6.2-.5 1.3zM284.5 616c-.3.6.1.7.9.4 1.8-.7 2.1-1.4.7-1.4-.6 0-1.3.4-1.6 1z"/></svg>